<svg xmlns="http://www.w3.org/2000/svg" width="64" height="64" viewBox="0 0 64 64" fill="none"><path fill-rule="evenodd" clip-rule="evenodd" d="M42.6667 45.3332H10.6667C9.19467 45.3332 8 44.1385 8 42.6665V21.3332C8 19.8612 9.19467 18.6665 10.6667 18.6665H42.6667C44.1387 18.6665 45.3333 19.8612 45.3333 21.3332V42.6665C45.3333 44.1385 44.1387 45.3332 42.6667 45.3332Z" stroke="#90BE42" stroke-width="4" stroke-linecap="round" stroke-linejoin="round"></path><path d="M17.333 53.3333H35.9997" stroke="#90BE42" stroke-width="4" stroke-linecap="round" stroke-linejoin="round"></path><path d="M44.6663 53.3333H53.333C54.805 53.3333 55.9997 52.1387 55.9997 50.6667V10.6667C55.9997 9.19467 54.805 8 53.333 8H35.9997C34.5277 8 33.333 9.19467 33.333 10.6667V16.4987" stroke="#90BE42" stroke-width="4" stroke-linecap="round" stroke-linejoin="round"></path><path d="M26.6663 45.3335V53.3335" stroke="#90BE42" stroke-width="4" stroke-linecap="round" stroke-linejoin="round"></path></svg>