<svg xmlns="http://www.w3.org/2000/svg" width="32" height="32" viewBox="0 0 32 32" fill="none"><path fill-rule="evenodd" clip-rule="evenodd" d="M10.6665 5.33317L12.3998 3.1665C12.6532 2.8505 13.0358 2.6665 13.4412 2.6665H18.5598C18.9652 2.6665 19.3478 2.8505 19.6012 3.1665L21.3332 5.33317V5.33317V6.6665C21.3332 7.4025 20.7358 7.99984 19.9998 7.99984H11.9998C11.2638 7.99984 10.6665 7.4025 10.6665 6.6665V5.33317V5.33317H10.6665Z" stroke="#323232" stroke-width="2" stroke-linecap="round" stroke-linejoin="round"></path><path d="M10.6668 5.3335H8.00016C6.52683 5.3335 5.3335 6.52683 5.3335 8.00016V25.3335C5.3335 26.8068 6.52683 28.0002 8.00016 28.0002H24.0002C25.4735 28.0002 26.6668 26.8068 26.6668 25.3335V8.00016C26.6668 6.52683 25.4735 5.3335 24.0002 5.3335H21.3335" stroke="#323232" stroke-width="2" stroke-linecap="round" stroke-linejoin="round"></path></svg>