<svg xmlns="http://www.w3.org/2000/svg" width="32" height="32" viewBox="0 0 32 32" fill="none"><path d="M27.7235 12.7002C28.7769 13.7536 28.7769 15.4614 27.7235 16.5148C26.6702 17.5682 24.9623 17.5682 23.9089 16.5148C22.8556 15.4614 22.8556 13.7536 23.9089 12.7002C24.9623 11.6468 26.6702 11.6468 27.7235 12.7002" stroke="#90BE42" stroke-width="2" stroke-linecap="round" stroke-linejoin="round"></path><path d="M18.9371 7.88445C20.5591 9.50642 20.5591 12.1362 18.9371 13.7582C17.3151 15.3801 14.6854 15.3801 13.0634 13.7582C11.4414 12.1362 11.4414 9.50644 13.0634 7.88445C14.6854 6.26248 17.3151 6.26248 18.9371 7.88445" stroke="#90BE42" stroke-width="2" stroke-linecap="round" stroke-linejoin="round"></path><path d="M8.09145 12.7002C9.14482 13.7536 9.14482 15.4614 8.09145 16.5148C7.03807 17.5682 5.33022 17.5682 4.27685 16.5148C3.22347 15.4614 3.22347 13.7536 4.27685 12.7002C5.33022 11.6468 7.03807 11.6468 8.09145 12.7002" stroke="#90BE42" stroke-width="2" stroke-linecap="round" stroke-linejoin="round"></path><path d="M30.6667 25.3357V23.8743C30.6667 22.033 29.1747 20.541 27.3334 20.541H26.2654" stroke="#90BE42" stroke-width="2" stroke-linecap="round" stroke-linejoin="round"></path><path d="M1.3335 25.3357V23.8743C1.3335 22.033 2.8255 20.541 4.66683 20.541H5.73483" stroke="#90BE42" stroke-width="2" stroke-linecap="round" stroke-linejoin="round"></path><path d="M23.1188 25.3345V23.1999C23.1188 20.6225 21.0295 18.5332 18.4521 18.5332H13.5468C10.9695 18.5332 8.88013 20.6225 8.88013 23.1999V25.3345" stroke="#90BE42" stroke-width="2" stroke-linecap="round" stroke-linejoin="round"></path></svg>