<svg xmlns="http://www.w3.org/2000/svg" width="32" height="32" viewBox="0 0 32 32" fill="none"><path fill-rule="evenodd" clip-rule="evenodd" d="M8 28.0007H5.33333C4.59733 28.0007 4 27.4033 4 26.6673V18.6673C4 17.9313 4.59733 17.334 5.33333 17.334H8C8.736 17.334 9.33333 17.9313 9.33333 18.6673V26.6673C9.33333 27.4033 8.736 28.0007 8 28.0007Z" stroke="#90BE42" stroke-width="2" stroke-linecap="round" stroke-linejoin="round"></path><path d="M17.3335 22.6655H20.4442C21.0215 22.6655 21.5828 22.4788 22.0442 22.1321L25.2655 19.7161C26.0695 19.1135 27.1948 19.1935 27.9055 19.9041V19.9041C28.6948 20.6935 28.6948 21.9721 27.9055 22.7601L25.1415 25.5241C24.3975 26.2681 23.4482 26.7761 22.4162 26.9828L18.5095 27.7641C17.7348 27.9188 16.9362 27.9001 16.1695 27.7081L12.6362 26.8255C12.2135 26.7188 11.7802 26.6655 11.3442 26.6655H9.3335" stroke="#90BE42" stroke-width="2" stroke-linecap="round" stroke-linejoin="round"></path><path d="M17.3335 22.6673H19.3135C20.4295 22.6673 21.3335 21.7633 21.3335 20.6473V20.2433C21.3335 19.3167 20.7028 18.5087 19.8042 18.2847L16.7482 17.5207C16.2508 17.3967 15.7415 17.334 15.2295 17.334V17.334C13.9935 17.334 12.7842 17.6993 11.7562 18.386L9.3335 20.0007" stroke="#90BE42" stroke-width="2" stroke-linecap="round" stroke-linejoin="round"></path><path d="M22.8918 6.87394C24.3696 8.35168 24.3696 10.7476 22.8918 12.2253C21.4141 13.7031 19.0182 13.7031 17.5404 12.2253C16.0627 10.7476 16.0627 8.35168 17.5404 6.87394C19.0182 5.39619 21.4141 5.39619 22.8918 6.87394" stroke="#90BE42" stroke-width="2" stroke-linecap="round" stroke-linejoin="round"></path><path d="M19.508 5.83268C19.384 5.07935 19.04 4.35535 18.4587 3.77402C16.9813 2.29668 14.5853 2.29668 13.108 3.77402C11.6307 5.25135 11.6307 7.64735 13.108 9.12468C14.028 10.0447 15.3027 10.39 16.4907 10.1647" stroke="#90BE42" stroke-width="2" stroke-linecap="round" stroke-linejoin="round"></path></svg>