<svg xmlns="http://www.w3.org/2000/svg" width="65" height="64" viewBox="0 0 65 64" fill="none"><rect x="0.5" width="64" height="64" rx="32" fill="#262626"></rect><path d="M24.3667 42.6666C26.5 40.6666 29.3 39.3333 32.5 39.3333C35.5667 39.3333 38.5 40.5333 40.6334 42.6666" stroke="#90BE42" stroke-width="2" stroke-linecap="round" stroke-linejoin="round"></path><path d="M35.3 28.5333C36.9 30.1333 36.9 32.6666 35.3 34.1333C33.7 35.6 31.1667 35.7333 29.7 34.1333C28.2334 32.5333 28.1 30 29.7 28.5333C31.3 27.0666 33.7 26.9333 35.3 28.5333" stroke="#90BE42" stroke-width="2" stroke-linecap="round" stroke-linejoin="round"></path><path d="M21.8333 38.6666C21.0333 37.0666 20.5 35.2 20.5 33.3333C20.5 26.6666 25.8333 21.3333 32.5 21.3333C39.1667 21.3333 44.5 26.6666 44.5 33.3333C44.5 35.2 43.9667 37.0666 43.1667 38.6666" stroke="#90BE42" stroke-width="2" stroke-linecap="round" stroke-linejoin="round"></path></svg>