<svg xmlns="http://www.w3.org/2000/svg" width="32" height="32" viewBox="0 0 32 32" fill="none"><path fill-rule="evenodd" clip-rule="evenodd" d="M8 24.7781C10.092 22.7448 12.9227 21.4941 16.0307 21.4941C19.108 21.4941 21.908 22.7195 24 24.7155C21.908 26.7488 19.0773 27.9995 15.9693 27.9995C12.892 27.9995 10.092 26.7741 8 24.7781Z" stroke="#90BE42" stroke-width="2" stroke-linecap="round" stroke-linejoin="round"></path><path d="M5.3 21.3667C4.48667 19.748 4 17.936 4 16C4 9.368 9.368 4 16 4C22.632 4 28 9.368 28 16C28 17.9333 27.516 19.7467 26.6973 21.364" stroke="#90BE42" stroke-width="2" stroke-linecap="round" stroke-linejoin="round"></path><path d="M18.8284 10.5056C20.3905 12.0676 20.3905 14.6003 18.8284 16.1624C17.2663 17.7245 14.7337 17.7245 13.1716 16.1624C11.6095 14.6003 11.6095 12.0676 13.1716 10.5056C14.7337 8.94346 17.2663 8.94346 18.8284 10.5056" stroke="#90BE42" stroke-width="2" stroke-linecap="round" stroke-linejoin="round"></path></svg>