<svg xmlns="http://www.w3.org/2000/svg" width="832" height="832" viewBox="0 0 832 832" fill="none"><g id="LINHAS RETAS EM VOLTA"><g id=".lineStates"><rect id="rect" width="505.312" height="6.01562" transform="matrix(-0.707106 0.707107 -0.707106 -0.707107 813.58 294.785)" fill="url(#paint0_linear_3110_8985)" fill-opacity="0.1"></rect></g><g id=".lineStates_2"><rect id="rect_2" x="822.631" y="329.91" width="505.312" height="6.01562" transform="rotate(140 822.631 329.91)" fill="url(#paint1_linear_3110_8985)" fill-opacity="0.1"></rect></g><g id=".lineStates_3"><rect id="rect_3" x="801.499" y="260.586" width="505.313" height="6.01562" transform="rotate(130 801.499 260.586)" fill="url(#paint2_linear_3110_8985)" fill-opacity="0.1"></rect></g><g id=".lineStates_4"><rect id="rect_4" width="505.312" height="6.01562" transform="matrix(-0.819152 0.573577 -0.573576 -0.819152 828.574 365.677)" fill="url(#paint3_linear_3110_8985)" fill-opacity="0.1"></rect></g><g id=".lineStates_5"><rect id="rect_5" width="505.312" height="6.01562" transform="matrix(-0.573578 0.819151 -0.819153 -0.573575 786.472 227.548)" fill="url(#paint4_linear_3110_8985)" fill-opacity="0.1"></rect></g><g id=".lineStates_6"><rect id="rect_6" x="768.649" y="195.979" width="505.312" height="6.01562" transform="rotate(120 768.649 195.979)" fill="url(#paint5_linear_3110_8985)" fill-opacity="0.1"></rect></g><g id=".lineStates_7"><rect id="rect_7" x="831.403" y="401.854" width="505.312" height="6.01562" transform="rotate(150 831.403 401.854)" fill="url(#paint6_linear_3110_8985)" fill-opacity="0.1"></rect></g><g id=".lineStates_8"><rect id="rect_8" x="748.13" y="166.067" width="505.312" height="6.01562" transform="rotate(115 748.13 166.067)" fill="url(#paint7_linear_3110_8985)" fill-opacity="0.1"></rect></g><g id=".lineStates_9"><rect id="rect_9" x="831.057" y="438.126" width="505.312" height="6.01562" transform="rotate(155 831.057 438.126)" fill="url(#paint8_linear_3110_8985)" fill-opacity="0.1"></rect></g><g id=".lineStates_10"><rect id="rect_10" x="725.083" y="138.056" width="505.312" height="6.01562" transform="rotate(110 725.083 138.056)" fill="url(#paint9_linear_3110_8985)" fill-opacity="0.1"></rect></g><g id=".lineStates_11"><rect id="rect_11" x="827.549" y="474.224" width="505.313" height="6.01562" transform="rotate(160 827.549 474.224)" fill="url(#paint10_linear_3110_8985)" fill-opacity="0.1"></rect></g><g id=".lineStates_12"><rect id="rect_12" x="820.895" y="509.873" width="505.313" height="6.01562" transform="rotate(165 820.895 509.873)" fill="url(#paint11_linear_3110_8985)" fill-opacity="0.1"></rect></g><g id=".lineStates_13"><rect id="rect_13" x="699.666" y="112.153" width="505.312" height="6.01562" transform="rotate(105 699.666 112.153)" fill="url(#paint12_linear_3110_8985)" fill-opacity="0.1"></rect></g><g id=".lineStates_14"><rect id="rect_14" x="811.188" y="544.833" width="505.312" height="6.01562" transform="rotate(170 811.188 544.833)" fill="url(#paint13_linear_3110_8985)" fill-opacity="0.1"></rect></g><g id=".lineStates_15"><rect id="rect_15" x="672.118" y="88.584" width="505.313" height="6.01562" transform="rotate(100 672.118 88.584)" fill="url(#paint14_linear_3110_8985)" fill-opacity="0.1"></rect></g><g id=".lineStates_16"><rect id="rect_16" x="798.457" y="578.796" width="505.313" height="6.01562" transform="rotate(175 798.457 578.796)" fill="url(#paint15_linear_3110_8985)" fill-opacity="0.1"></rect></g><g id=".lineStates_17"><rect id="rect_17" x="642.604" y="67.5002" width="505.312" height="6.01562" transform="rotate(95 642.604 67.5002)" fill="url(#paint16_linear_3110_8985)" fill-opacity="0.1"></rect></g><g id=".lineStates_18"><rect id="rect_18" x="782.797" y="611.508" width="505.312" height="6.01562" transform="rotate(180 782.797 611.508)" fill="url(#paint17_linear_3110_8985)" fill-opacity="0.1"></rect></g><g id=".lineStates_19"><rect id="rect_19" x="611.352" y="49.0491" width="505.312" height="6.01562" transform="rotate(90 611.352 49.0491)" fill="url(#paint18_linear_3110_8985)" fill-opacity="0.1"></rect></g><g id=".lineStates_20"><rect id="rect_20" width="505.312" height="6.01562" transform="matrix(-0.996195 -0.0871563 0.0871552 -0.996195 764.377 642.759)" fill="url(#paint19_linear_3110_8985)" fill-opacity="0.1"></rect></g><g id=".lineStates_21"><rect id="rect_21" x="578.639" y="33.4221" width="505.313" height="6.01562" transform="rotate(85 578.639 33.4221)" fill="url(#paint20_linear_3110_8985)" fill-opacity="0.1"></rect></g><g id=".lineStates_22"><rect id="rect_22" width="505.312" height="6.01562" transform="matrix(-0.984808 -0.173649 0.173648 -0.984808 743.289 672.274)" fill="url(#paint21_linear_3110_8985)" fill-opacity="0.1"></rect></g><g id=".lineStates_23"><rect id="rect_23" x="544.677" y="20.688" width="505.313" height="6.01562" transform="rotate(80 544.677 20.688)" fill="url(#paint22_linear_3110_8985)" fill-opacity="0.1"></rect></g><g id=".lineStates_24"><rect id="rect_24" x="719.692" y="699.82" width="505.312" height="6.01562" transform="rotate(-165 719.692 699.82)" fill="url(#paint23_linear_3110_8985)" fill-opacity="0.1"></rect></g><g id=".lineStates_25"><rect id="rect_25" width="505.312" height="6.01562" transform="matrix(0.258818 0.965926 -0.965926 0.25882 509.716 10.948)" fill="url(#paint24_linear_3110_8985)" fill-opacity="0.1"></rect></g><g id=".lineStates_26"><rect id="rect_26" width="505.312" height="6.01562" transform="matrix(-0.939692 -0.342021 0.342019 -0.939693 693.815 725.234)" fill="url(#paint25_linear_3110_8985)" fill-opacity="0.1"></rect></g><g id=".lineStates_27"><rect id="rect_27" x="474.072" y="4.32715" width="505.313" height="6.01562" transform="rotate(70 474.072 4.32715)" fill="url(#paint26_linear_3110_8985)" fill-opacity="0.1"></rect></g><g id=".lineStates_28"><rect id="rect_28" x="665.806" y="748.284" width="505.312" height="6.01562" transform="rotate(-155 665.806 748.284)" fill="url(#paint27_linear_3110_8985)" fill-opacity="0.1"></rect></g><g id=".lineStates_29"><rect id="rect_29" x="437.969" y="0.820557" width="505.312" height="6.01562" transform="rotate(65 437.969 0.820557)" fill="url(#paint28_linear_3110_8985)" fill-opacity="0.1"></rect></g><g id=".lineStates_30"><rect id="rect_30" width="505.312" height="6.01562" transform="matrix(-0.866025 -0.500001 0.499999 -0.866026 635.895 768.808)" fill="url(#paint29_linear_3110_8985)" fill-opacity="0.1"></rect></g><g id=".lineStates_31"><rect id="rect_31" width="505.312" height="6.01562" transform="matrix(0.500001 0.866025 -0.866026 0.499999 401.696 0.470947)" fill="url(#paint30_linear_3110_8985)" fill-opacity="0.1"></rect></g><g id=".lineStates_32"><rect id="rect_32" width="505.312" height="6.01562" transform="matrix(-0.819152 -0.573576 0.573577 -0.819152 604.296 786.626)" fill="url(#paint31_linear_3110_8985)" fill-opacity="0.1"></rect></g><g id=".lineStates_33"><rect id="rect_33" width="505.312" height="6.01562" transform="matrix(0.573575 0.819153 -0.819151 0.573578 365.519 3.2749)" fill="url(#paint32_linear_3110_8985)" fill-opacity="0.1"></rect></g><g id=".lineStates_34"><rect id="rect_34" width="505.312" height="6.01562" transform="matrix(0.642786 0.766046 -0.766043 0.642789 329.755 9.24292)" fill="url(#paint33_linear_3110_8985)" fill-opacity="0.1"></rect></g><g id=".lineStates_35"><rect id="rect_35" x="571.292" y="801.652" width="505.313" height="6.01562" transform="rotate(-140 571.292 801.652)" fill="url(#paint34_linear_3110_8985)" fill-opacity="0.1"></rect></g><g id=".lineStates_36"><rect id="rect_36" x="537.089" y="813.738" width="505.313" height="6.01562" transform="rotate(-135 537.089 813.738)" fill="url(#paint35_linear_3110_8985)" fill-opacity="0.1"></rect></g><g id=".lineStates_37"><rect id="rect_37" width="505.312" height="6.01562" transform="matrix(0.707106 0.707108 -0.707106 0.707108 294.63 18.2944)" fill="url(#paint36_linear_3110_8985)" fill-opacity="0.1"></rect></g><g id=".lineStates_38"><rect id="rect_38" x="260.427" y="30.3757" width="505.313" height="6.01562" transform="rotate(40 260.427 30.3757)" fill="url(#paint37_linear_3110_8985)" fill-opacity="0.1"></rect></g><g id=".lineStates_39"><rect id="rect_39" x="501.965" y="822.79" width="505.312" height="6.01562" transform="rotate(-130 501.965 822.79)" fill="url(#paint38_linear_3110_8985)" fill-opacity="0.1"></rect></g><g id=".lineStates_40"><rect id="rect_40" width="505.312" height="6.01562" transform="matrix(-0.573577 -0.819152 0.819152 -0.573576 466.17 828.726)" fill="url(#paint39_linear_3110_8985)" fill-opacity="0.1"></rect></g><g id=".lineStates_41"><rect id="rect_41" width="505.312" height="6.01562" transform="matrix(0.819151 0.573578 -0.573575 0.819153 227.394 45.3752)" fill="url(#paint40_linear_3110_8985)" fill-opacity="0.1"></rect></g><g id=".lineStates_42"><rect id="rect_42" width="505.312" height="6.01562" transform="matrix(-0.499999 -0.866026 0.866025 -0.500001 430.023 831.559)" fill="url(#paint41_linear_3110_8985)" fill-opacity="0.1"></rect></g><g id=".lineStates_43"><rect id="rect_43" width="505.312" height="6.01562" transform="matrix(0.866026 0.499999 -0.500001 0.866025 195.822 63.2244)" fill="url(#paint42_linear_3110_8985)" fill-opacity="0.1"></rect></g><g id=".lineStates_44"><rect id="rect_44" x="393.752" y="831.211" width="505.312" height="6.01562" transform="rotate(-115 393.752 831.211)" fill="url(#paint43_linear_3110_8985)" fill-opacity="0.1"></rect></g><g id=".lineStates_45"><rect id="rect_45" x="165.911" y="83.7449" width="505.312" height="6.01562" transform="rotate(25 165.911 83.7449)" fill="url(#paint44_linear_3110_8985)" fill-opacity="0.1"></rect></g><g id=".lineStates_46"><rect id="rect_46" x="357.646" y="827.701" width="505.313" height="6.01562" transform="rotate(-110 357.646 827.701)" fill="url(#paint45_linear_3110_8985)" fill-opacity="0.1"></rect></g><g id=".lineStates_47"><rect id="rect_47" x="137.903" y="106.789" width="505.312" height="6.01562" transform="rotate(20 137.903 106.789)" fill="url(#paint46_linear_3110_8985)" fill-opacity="0.1"></rect></g><g id=".lineStates_48"><rect id="rect_48" x="321.972" y="821.049" width="505.313" height="6.01562" transform="rotate(-105 321.972 821.049)" fill="url(#paint47_linear_3110_8985)" fill-opacity="0.1"></rect></g><g id=".lineStates_49"><rect id="rect_49" width="505.312" height="6.01562" transform="matrix(0.965926 0.25882 -0.258818 0.965926 111.996 132.182)" fill="url(#paint48_linear_3110_8985)" fill-opacity="0.1"></rect></g><g id=".lineStates_50"><rect id="rect_50" x="88.4316" y="159.759" width="505.313" height="6.01562" transform="rotate(10 88.4316 159.759)" fill="url(#paint49_linear_3110_8985)" fill-opacity="0.1"></rect></g><g id=".lineStates_51"><rect id="rect_51" width="505.312" height="6.01562" transform="matrix(-0.173648 -0.984808 0.984808 -0.173649 287.043 811.343)" fill="url(#paint50_linear_3110_8985)" fill-opacity="0.1"></rect></g><g id=".lineStates_52"><rect id="rect_52" width="505.312" height="6.01562" transform="matrix(-0.0871552 -0.996195 0.996195 -0.0871563 253.076 798.609)" fill="url(#paint51_linear_3110_8985)" fill-opacity="0.1"></rect></g><g id=".lineStates_53"><rect id="rect_53" x="67.3418" y="189.271" width="505.312" height="6.01562" transform="rotate(5 67.3418 189.271)" fill="url(#paint52_linear_3110_8985)" fill-opacity="0.1"></rect></g><g id=".lineStates_54"><rect id="rect_54" x="220.336" y="782.953" width="505.312" height="6.01562" transform="rotate(-90 220.336 782.953)" fill="url(#paint53_linear_3110_8985)" fill-opacity="0.1"></rect></g><g id=".lineStates_55"><rect id="rect_55" x="48.8901" y="220.492" width="505.312" height="6.01562" fill="url(#paint54_linear_3110_8985)" fill-opacity="0.1"></rect></g><g id=".lineStates_56"><rect id="rect_56" x="189.112" y="764.533" width="505.313" height="6.01562" transform="rotate(-85 189.112 764.533)" fill="url(#paint55_linear_3110_8985)" fill-opacity="0.1"></rect></g><g id=".lineStates_57"><rect id="rect_57" x="33.2617" y="253.237" width="505.313" height="6.01562" transform="rotate(-5 33.2617 253.237)" fill="url(#paint56_linear_3110_8985)" fill-opacity="0.1"></rect></g><g id=".lineStates_58"><rect id="rect_58" x="159.601" y="743.439" width="505.313" height="6.01562" transform="rotate(-80 159.601 743.439)" fill="url(#paint57_linear_3110_8985)" fill-opacity="0.1"></rect></g><g id=".lineStates_59"><rect id="rect_59" x="20.5312" y="287.196" width="505.313" height="6.01562" transform="rotate(-10 20.5312 287.196)" fill="url(#paint58_linear_3110_8985)" fill-opacity="0.1"></rect></g><g id=".lineStates_60"><rect id="rect_60" x="132.024" y="719.849" width="505.312" height="6.01562" transform="rotate(-75 132.024 719.849)" fill="url(#paint59_linear_3110_8985)" fill-opacity="0.1"></rect></g><g id=".lineStates_61"><rect id="rect_61" x="10.7944" y="322.13" width="505.312" height="6.01562" transform="rotate(-15 10.7944 322.13)" fill="url(#paint60_linear_3110_8985)" fill-opacity="0.1"></rect></g><g id=".lineStates_62"><rect id="rect_62" x="4.16943" y="357.799" width="505.313" height="6.01562" transform="rotate(-20 4.16943 357.799)" fill="url(#paint61_linear_3110_8985)" fill-opacity="0.1"></rect></g><g id=".lineStates_63"><rect id="rect_63" x="106.637" y="693.968" width="505.312" height="6.01562" transform="rotate(-70 106.637 693.968)" fill="url(#paint62_linear_3110_8985)" fill-opacity="0.1"></rect></g><g id=".lineStates_64"><rect id="rect_64" x="0.661621" y="393.906" width="505.312" height="6.01562" transform="rotate(-25 0.661621 393.906)" fill="url(#paint63_linear_3110_8985)" fill-opacity="0.1"></rect></g><g id=".lineStates_65"><rect id="rect_65" x="83.5884" y="665.962" width="505.312" height="6.01562" transform="rotate(-65 83.5884 665.962)" fill="url(#paint64_linear_3110_8985)" fill-opacity="0.1"></rect></g><g id=".lineStates_66"><rect id="rect_66" x="0.313965" y="430.177" width="505.312" height="6.01562" transform="rotate(-30 0.313965 430.177)" fill="url(#paint65_linear_3110_8985)" fill-opacity="0.1"></rect></g><g id=".lineStates_67"><rect id="rect_67" width="505.312" height="6.01562" transform="matrix(0.499999 -0.866026 0.866025 0.500001 63.0674 636.051)" fill="url(#paint66_linear_3110_8985)" fill-opacity="0.1"></rect></g><g id=".lineStates_68"><rect id="rect_68" width="505.312" height="6.01562" transform="matrix(0.573576 -0.819152 0.819152 0.573577 45.2188 604.452)" fill="url(#paint67_linear_3110_8985)" fill-opacity="0.1"></rect></g><g id=".lineStates_69"><rect id="rect_69" width="505.312" height="6.01562" transform="matrix(0.819152 -0.573577 0.573576 0.819152 3.11523 466.325)" fill="url(#paint68_linear_3110_8985)" fill-opacity="0.1"></rect></g><g id=".lineStates_70"><rect id="rect_70" width="505.312" height="6.01562" transform="matrix(0.642788 -0.766044 0.766045 0.642787 30.2168 571.448)" fill="url(#paint69_linear_3110_8985)" fill-opacity="0.1"></rect></g><g id=".lineStates_71"><rect id="rect_71" width="505.312" height="6.01562" transform="matrix(0.766045 -0.642787 0.642788 0.766044 9.08545 502.122)" fill="url(#paint70_linear_3110_8985)" fill-opacity="0.1"></rect></g><g id=".lineStates_72"><rect id="rect_72" width="505.312" height="6.01562" transform="matrix(0.707108 -0.707106 0.707108 0.707106 18.1372 537.246)" fill="url(#paint71_linear_3110_8985)" fill-opacity="0.1"></rect></g></g><defs><linearGradient id="paint0_linear_3110_8985" x1="505.312" y1="0" x2="0" y2="0" gradientUnits="userSpaceOnUse"><stop stop-color="white"></stop><stop offset="1" stop-color="white" stop-opacity="0"></stop></linearGradient><linearGradient id="paint1_linear_3110_8985" x1="1327.94" y1="329.91" x2="822.631" y2="329.91" gradientUnits="userSpaceOnUse"><stop stop-color="white"></stop><stop offset="1" stop-color="white" stop-opacity="0"></stop></linearGradient><linearGradient id="paint2_linear_3110_8985" x1="1306.81" y1="260.586" x2="801.499" y2="260.586" gradientUnits="userSpaceOnUse"><stop stop-color="white"></stop><stop offset="1" stop-color="white" stop-opacity="0"></stop></linearGradient><linearGradient id="paint3_linear_3110_8985" x1="505.312" y1="0" x2="0" y2="0" gradientUnits="userSpaceOnUse"><stop stop-color="white"></stop><stop offset="1" stop-color="white" stop-opacity="0"></stop></linearGradient><linearGradient id="paint4_linear_3110_8985" x1="505.312" y1="0" x2="0" y2="0" gradientUnits="userSpaceOnUse"><stop stop-color="white"></stop><stop offset="1" stop-color="white" stop-opacity="0"></stop></linearGradient><linearGradient id="paint5_linear_3110_8985" x1="1273.96" y1="195.979" x2="768.649" y2="195.979" gradientUnits="userSpaceOnUse"><stop stop-color="white"></stop><stop offset="1" stop-color="white" stop-opacity="0"></stop></linearGradient><linearGradient id="paint6_linear_3110_8985" x1="1336.72" y1="401.854" x2="831.403" y2="401.854" gradientUnits="userSpaceOnUse"><stop stop-color="white"></stop><stop offset="1" stop-color="white" stop-opacity="0"></stop></linearGradient><linearGradient id="paint7_linear_3110_8985" x1="1253.44" y1="166.067" x2="748.13" y2="166.067" gradientUnits="userSpaceOnUse"><stop stop-color="white"></stop><stop offset="1" stop-color="white" stop-opacity="0"></stop></linearGradient><linearGradient id="paint8_linear_3110_8985" x1="1336.37" y1="438.126" x2="831.057" y2="438.126" gradientUnits="userSpaceOnUse"><stop stop-color="white"></stop><stop offset="1" stop-color="white" stop-opacity="0"></stop></linearGradient><linearGradient id="paint9_linear_3110_8985" x1="1230.4" y1="138.056" x2="725.083" y2="138.056" gradientUnits="userSpaceOnUse"><stop stop-color="white"></stop><stop offset="1" stop-color="white" stop-opacity="0"></stop></linearGradient><linearGradient id="paint10_linear_3110_8985" x1="1332.86" y1="474.224" x2="827.549" y2="474.224" gradientUnits="userSpaceOnUse"><stop stop-color="white"></stop><stop offset="1" stop-color="white" stop-opacity="0"></stop></linearGradient><linearGradient id="paint11_linear_3110_8985" x1="1326.21" y1="509.873" x2="820.895" y2="509.873" gradientUnits="userSpaceOnUse"><stop stop-color="white"></stop><stop offset="1" stop-color="white" stop-opacity="0"></stop></linearGradient><linearGradient id="paint12_linear_3110_8985" x1="1204.98" y1="112.153" x2="699.666" y2="112.153" gradientUnits="userSpaceOnUse"><stop stop-color="white"></stop><stop offset="1" stop-color="white" stop-opacity="0"></stop></linearGradient><linearGradient id="paint13_linear_3110_8985" x1="1316.5" y1="544.833" x2="811.187" y2="544.833" gradientUnits="userSpaceOnUse"><stop stop-color="white"></stop><stop offset="1" stop-color="white" stop-opacity="0"></stop></linearGradient><linearGradient id="paint14_linear_3110_8985" x1="1177.43" y1="88.584" x2="672.118" y2="88.584" gradientUnits="userSpaceOnUse"><stop stop-color="white"></stop><stop offset="1" stop-color="white" stop-opacity="0"></stop></linearGradient><linearGradient id="paint15_linear_3110_8985" x1="1303.77" y1="578.796" x2="798.457" y2="578.796" gradientUnits="userSpaceOnUse"><stop stop-color="white"></stop><stop offset="1" stop-color="white" stop-opacity="0"></stop></linearGradient><linearGradient id="paint16_linear_3110_8985" x1="1147.92" y1="67.5002" x2="642.604" y2="67.5002" gradientUnits="userSpaceOnUse"><stop stop-color="white"></stop><stop offset="1" stop-color="white" stop-opacity="0"></stop></linearGradient><linearGradient id="paint17_linear_3110_8985" x1="1288.11" y1="611.508" x2="782.797" y2="611.508" gradientUnits="userSpaceOnUse"><stop stop-color="white"></stop><stop offset="1" stop-color="white" stop-opacity="0"></stop></linearGradient><linearGradient id="paint18_linear_3110_8985" x1="1116.66" y1="49.0491" x2="611.352" y2="49.0491" gradientUnits="userSpaceOnUse"><stop stop-color="white"></stop><stop offset="1" stop-color="white" stop-opacity="0"></stop></linearGradient><linearGradient id="paint19_linear_3110_8985" x1="505.312" y1="0" x2="0" y2="0" gradientUnits="userSpaceOnUse"><stop stop-color="white"></stop><stop offset="1" stop-color="white" stop-opacity="0"></stop></linearGradient><linearGradient id="paint20_linear_3110_8985" x1="1083.95" y1="33.4221" x2="578.639" y2="33.4221" gradientUnits="userSpaceOnUse"><stop stop-color="white"></stop><stop offset="1" stop-color="white" stop-opacity="0"></stop></linearGradient><linearGradient id="paint21_linear_3110_8985" x1="505.312" y1="0" x2="0" y2="0" gradientUnits="userSpaceOnUse"><stop stop-color="white"></stop><stop offset="1" stop-color="white" stop-opacity="0"></stop></linearGradient><linearGradient id="paint22_linear_3110_8985" x1="1049.99" y1="20.688" x2="544.677" y2="20.688" gradientUnits="userSpaceOnUse"><stop stop-color="white"></stop><stop offset="1" stop-color="white" stop-opacity="0"></stop></linearGradient><linearGradient id="paint23_linear_3110_8985" x1="1225" y1="699.82" x2="719.692" y2="699.82" gradientUnits="userSpaceOnUse"><stop stop-color="white"></stop><stop offset="1" stop-color="white" stop-opacity="0"></stop></linearGradient><linearGradient id="paint24_linear_3110_8985" x1="505.312" y1="0" x2="0" y2="0" gradientUnits="userSpaceOnUse"><stop stop-color="white"></stop><stop offset="1" stop-color="white" stop-opacity="0"></stop></linearGradient><linearGradient id="paint25_linear_3110_8985" x1="505.312" y1="0" x2="0" y2="0" gradientUnits="userSpaceOnUse"><stop stop-color="white"></stop><stop offset="1" stop-color="white" stop-opacity="0"></stop></linearGradient><linearGradient id="paint26_linear_3110_8985" x1="979.385" y1="4.32715" x2="474.072" y2="4.32715" gradientUnits="userSpaceOnUse"><stop stop-color="white"></stop><stop offset="1" stop-color="white" stop-opacity="0"></stop></linearGradient><linearGradient id="paint27_linear_3110_8985" x1="1171.12" y1="748.284" x2="665.806" y2="748.284" gradientUnits="userSpaceOnUse"><stop stop-color="white"></stop><stop offset="1" stop-color="white" stop-opacity="0"></stop></linearGradient><linearGradient id="paint28_linear_3110_8985" x1="943.281" y1="0.820557" x2="437.969" y2="0.820557" gradientUnits="userSpaceOnUse"><stop stop-color="white"></stop><stop offset="1" stop-color="white" stop-opacity="0"></stop></linearGradient><linearGradient id="paint29_linear_3110_8985" x1="505.312" y1="0" x2="0" y2="0" gradientUnits="userSpaceOnUse"><stop stop-color="white"></stop><stop offset="1" stop-color="white" stop-opacity="0"></stop></linearGradient><linearGradient id="paint30_linear_3110_8985" x1="505.312" y1="0" x2="0" y2="0" gradientUnits="userSpaceOnUse"><stop stop-color="white"></stop><stop offset="1" stop-color="white" stop-opacity="0"></stop></linearGradient><linearGradient id="paint31_linear_3110_8985" x1="505.312" y1="0" x2="0" y2="0" gradientUnits="userSpaceOnUse"><stop stop-color="white"></stop><stop offset="1" stop-color="white" stop-opacity="0"></stop></linearGradient><linearGradient id="paint32_linear_3110_8985" x1="505.312" y1="0" x2="0" y2="0" gradientUnits="userSpaceOnUse"><stop stop-color="white"></stop><stop offset="1" stop-color="white" stop-opacity="0"></stop></linearGradient><linearGradient id="paint33_linear_3110_8985" x1="505.312" y1="0" x2="0" y2="0" gradientUnits="userSpaceOnUse"><stop stop-color="white"></stop><stop offset="1" stop-color="white" stop-opacity="0"></stop></linearGradient><linearGradient id="paint34_linear_3110_8985" x1="1076.6" y1="801.652" x2="571.292" y2="801.652" gradientUnits="userSpaceOnUse"><stop stop-color="white"></stop><stop offset="1" stop-color="white" stop-opacity="0"></stop></linearGradient><linearGradient id="paint35_linear_3110_8985" x1="1042.4" y1="813.738" x2="537.089" y2="813.738" gradientUnits="userSpaceOnUse"><stop stop-color="white"></stop><stop offset="1" stop-color="white" stop-opacity="0"></stop></linearGradient><linearGradient id="paint36_linear_3110_8985" x1="505.312" y1="0" x2="0" y2="0" gradientUnits="userSpaceOnUse"><stop stop-color="white"></stop><stop offset="1" stop-color="white" stop-opacity="0"></stop></linearGradient><linearGradient id="paint37_linear_3110_8985" x1="765.739" y1="30.3757" x2="260.427" y2="30.3757" gradientUnits="userSpaceOnUse"><stop stop-color="white"></stop><stop offset="1" stop-color="white" stop-opacity="0"></stop></linearGradient><linearGradient id="paint38_linear_3110_8985" x1="1007.28" y1="822.79" x2="501.965" y2="822.79" gradientUnits="userSpaceOnUse"><stop stop-color="white"></stop><stop offset="1" stop-color="white" stop-opacity="0"></stop></linearGradient><linearGradient id="paint39_linear_3110_8985" x1="505.312" y1="0" x2="0" y2="0" gradientUnits="userSpaceOnUse"><stop stop-color="white"></stop><stop offset="1" stop-color="white" stop-opacity="0"></stop></linearGradient><linearGradient id="paint40_linear_3110_8985" x1="505.312" y1="0" x2="0" y2="0" gradientUnits="userSpaceOnUse"><stop stop-color="white"></stop><stop offset="1" stop-color="white" stop-opacity="0"></stop></linearGradient><linearGradient id="paint41_linear_3110_8985" x1="505.312" y1="0" x2="0" y2="0" gradientUnits="userSpaceOnUse"><stop stop-color="white"></stop><stop offset="1" stop-color="white" stop-opacity="0"></stop></linearGradient><linearGradient id="paint42_linear_3110_8985" x1="505.312" y1="0" x2="0" y2="0" gradientUnits="userSpaceOnUse"><stop stop-color="white"></stop><stop offset="1" stop-color="white" stop-opacity="0"></stop></linearGradient><linearGradient id="paint43_linear_3110_8985" x1="899.064" y1="831.211" x2="393.752" y2="831.211" gradientUnits="userSpaceOnUse"><stop stop-color="white"></stop><stop offset="1" stop-color="white" stop-opacity="0"></stop></linearGradient><linearGradient id="paint44_linear_3110_8985" x1="671.224" y1="83.7449" x2="165.911" y2="83.7449" gradientUnits="userSpaceOnUse"><stop stop-color="white"></stop><stop offset="1" stop-color="white" stop-opacity="0"></stop></linearGradient><linearGradient id="paint45_linear_3110_8985" x1="862.959" y1="827.701" x2="357.646" y2="827.701" gradientUnits="userSpaceOnUse"><stop stop-color="white"></stop><stop offset="1" stop-color="white" stop-opacity="0"></stop></linearGradient><linearGradient id="paint46_linear_3110_8985" x1="643.216" y1="106.789" x2="137.903" y2="106.789" gradientUnits="userSpaceOnUse"><stop stop-color="white"></stop><stop offset="1" stop-color="white" stop-opacity="0"></stop></linearGradient><linearGradient id="paint47_linear_3110_8985" x1="827.284" y1="821.049" x2="321.972" y2="821.049" gradientUnits="userSpaceOnUse"><stop stop-color="white"></stop><stop offset="1" stop-color="white" stop-opacity="0"></stop></linearGradient><linearGradient id="paint48_linear_3110_8985" x1="505.312" y1="0" x2="0" y2="0" gradientUnits="userSpaceOnUse"><stop stop-color="white"></stop><stop offset="1" stop-color="white" stop-opacity="0"></stop></linearGradient><linearGradient id="paint49_linear_3110_8985" x1="593.744" y1="159.759" x2="88.4316" y2="159.759" gradientUnits="userSpaceOnUse"><stop stop-color="white"></stop><stop offset="1" stop-color="white" stop-opacity="0"></stop></linearGradient><linearGradient id="paint50_linear_3110_8985" x1="505.312" y1="0" x2="0" y2="0" gradientUnits="userSpaceOnUse"><stop stop-color="white"></stop><stop offset="1" stop-color="white" stop-opacity="0"></stop></linearGradient><linearGradient id="paint51_linear_3110_8985" x1="505.312" y1="0" x2="0" y2="0" gradientUnits="userSpaceOnUse"><stop stop-color="white"></stop><stop offset="1" stop-color="white" stop-opacity="0"></stop></linearGradient><linearGradient id="paint52_linear_3110_8985" x1="572.654" y1="189.271" x2="67.3418" y2="189.271" gradientUnits="userSpaceOnUse"><stop stop-color="white"></stop><stop offset="1" stop-color="white" stop-opacity="0"></stop></linearGradient><linearGradient id="paint53_linear_3110_8985" x1="725.648" y1="782.953" x2="220.336" y2="782.953" gradientUnits="userSpaceOnUse"><stop stop-color="white"></stop><stop offset="1" stop-color="white" stop-opacity="0"></stop></linearGradient><linearGradient id="paint54_linear_3110_8985" x1="554.203" y1="220.492" x2="48.8901" y2="220.492" gradientUnits="userSpaceOnUse"><stop stop-color="white"></stop><stop offset="1" stop-color="white" stop-opacity="0"></stop></linearGradient><linearGradient id="paint55_linear_3110_8985" x1="694.424" y1="764.533" x2="189.112" y2="764.533" gradientUnits="userSpaceOnUse"><stop stop-color="white"></stop><stop offset="1" stop-color="white" stop-opacity="0"></stop></linearGradient><linearGradient id="paint56_linear_3110_8985" x1="538.574" y1="253.237" x2="33.2617" y2="253.237" gradientUnits="userSpaceOnUse"><stop stop-color="white"></stop><stop offset="1" stop-color="white" stop-opacity="0"></stop></linearGradient><linearGradient id="paint57_linear_3110_8985" x1="664.913" y1="743.439" x2="159.601" y2="743.439" gradientUnits="userSpaceOnUse"><stop stop-color="white"></stop><stop offset="1" stop-color="white" stop-opacity="0"></stop></linearGradient><linearGradient id="paint58_linear_3110_8985" x1="525.844" y1="287.196" x2="20.5312" y2="287.196" gradientUnits="userSpaceOnUse"><stop stop-color="white"></stop><stop offset="1" stop-color="white" stop-opacity="0"></stop></linearGradient><linearGradient id="paint59_linear_3110_8985" x1="637.336" y1="719.849" x2="132.024" y2="719.849" gradientUnits="userSpaceOnUse"><stop stop-color="white"></stop><stop offset="1" stop-color="white" stop-opacity="0"></stop></linearGradient><linearGradient id="paint60_linear_3110_8985" x1="516.107" y1="322.13" x2="10.7944" y2="322.13" gradientUnits="userSpaceOnUse"><stop stop-color="white"></stop><stop offset="1" stop-color="white" stop-opacity="0"></stop></linearGradient><linearGradient id="paint61_linear_3110_8985" x1="509.482" y1="357.799" x2="4.16943" y2="357.799" gradientUnits="userSpaceOnUse"><stop stop-color="white"></stop><stop offset="1" stop-color="white" stop-opacity="0"></stop></linearGradient><linearGradient id="paint62_linear_3110_8985" x1="611.95" y1="693.968" x2="106.637" y2="693.968" gradientUnits="userSpaceOnUse"><stop stop-color="white"></stop><stop offset="1" stop-color="white" stop-opacity="0"></stop></linearGradient><linearGradient id="paint63_linear_3110_8985" x1="505.974" y1="393.906" x2="0.661621" y2="393.906" gradientUnits="userSpaceOnUse"><stop stop-color="white"></stop><stop offset="1" stop-color="white" stop-opacity="0"></stop></linearGradient><linearGradient id="paint64_linear_3110_8985" x1="588.901" y1="665.962" x2="83.5884" y2="665.962" gradientUnits="userSpaceOnUse"><stop stop-color="white"></stop><stop offset="1" stop-color="white" stop-opacity="0"></stop></linearGradient><linearGradient id="paint65_linear_3110_8985" x1="505.626" y1="430.177" x2="0.313965" y2="430.177" gradientUnits="userSpaceOnUse"><stop stop-color="white"></stop><stop offset="1" stop-color="white" stop-opacity="0"></stop></linearGradient><linearGradient id="paint66_linear_3110_8985" x1="505.312" y1="0" x2="0" y2="0" gradientUnits="userSpaceOnUse"><stop stop-color="white"></stop><stop offset="1" stop-color="white" stop-opacity="0"></stop></linearGradient><linearGradient id="paint67_linear_3110_8985" x1="505.312" y1="0" x2="0" y2="0" gradientUnits="userSpaceOnUse"><stop stop-color="white"></stop><stop offset="1" stop-color="white" stop-opacity="0"></stop></linearGradient><linearGradient id="paint68_linear_3110_8985" x1="505.312" y1="0" x2="0" y2="0" gradientUnits="userSpaceOnUse"><stop stop-color="white"></stop><stop offset="1" stop-color="white" stop-opacity="0"></stop></linearGradient><linearGradient id="paint69_linear_3110_8985" x1="505.312" y1="0" x2="0" y2="0" gradientUnits="userSpaceOnUse"><stop stop-color="white"></stop><stop offset="1" stop-color="white" stop-opacity="0"></stop></linearGradient><linearGradient id="paint70_linear_3110_8985" x1="505.312" y1="0" x2="0" y2="0" gradientUnits="userSpaceOnUse"><stop stop-color="white"></stop><stop offset="1" stop-color="white" stop-opacity="0"></stop></linearGradient><linearGradient id="paint71_linear_3110_8985" x1="505.312" y1="0" x2="0" y2="0" gradientUnits="userSpaceOnUse"><stop stop-color="white"></stop><stop offset="1" stop-color="white" stop-opacity="0"></stop></linearGradient></defs></svg>