<svg xmlns="http://www.w3.org/2000/svg" width="65" height="64" viewBox="0 0 65 64" fill="none"><path d="M32.5003 45.5459V56.0002" stroke="#90BE42" stroke-width="4" stroke-linecap="round" stroke-linejoin="round"></path><path d="M8.5 55.9998V52.0758C8.5 48.2624 11.1917 44.9791 14.9311 44.2312L22.5204 42.7134C23.1477 42.5879 23.7991 42.7168 24.3314 43.0716V43.0716C29.278 46.3693 35.7222 46.3693 40.6688 43.0716V43.0716C41.2011 42.7168 41.8525 42.5879 42.4798 42.7134L50.0691 44.2312C53.8084 44.9792 56.5 48.2624 56.5 52.0758V55.9998" stroke="#90BE42" stroke-width="4" stroke-linecap="round" stroke-linejoin="round"></path><path d="M43.1663 19.729V26.6668C43.1663 32.5578 38.3907 37.3334 32.4997 37.3334V37.3334C26.6086 37.3334 21.833 32.5578 21.833 26.6668V19.729" stroke="#90BE42" stroke-width="4" stroke-linecap="round" stroke-linejoin="round"></path><path d="M38.1032 35.7476L40.0341 43.4715" stroke="#90BE42" stroke-width="4" stroke-linecap="round" stroke-linejoin="round"></path><path d="M26.9032 35.7476L24.9724 43.4712" stroke="#90BE42" stroke-width="4" stroke-linecap="round" stroke-linejoin="round"></path><path fill-rule="evenodd" clip-rule="evenodd" d="M16.7586 17.2166L28.6374 23.0973C31.072 24.3011 33.9287 24.3011 36.3633 23.0973L48.242 17.2166C49.216 16.7404 49.8336 15.751 49.8336 14.6668C49.8336 13.5827 49.216 12.5932 48.242 12.117L36.3633 6.2364C33.9287 5.03253 31.072 5.03253 28.6374 6.2364L16.7586 12.117C15.7846 12.5932 15.167 13.5827 15.167 14.6668C15.167 15.751 15.7846 16.7404 16.7586 17.2166Z" stroke="#90BE42" stroke-width="4" stroke-linecap="round" stroke-linejoin="round"></path><path d="M49.8333 14.7588V21.6921" stroke="#90BE42" stroke-width="4" stroke-linecap="round" stroke-linejoin="round"></path></svg>